<mxfile host="app.diagrams.net" modified="2024-05-13T21:37:25.935Z" agent="Mozilla/5.0 (Windows NT 10.0; Win64; x64) AppleWebKit/537.36 (KHTML, like Gecko) Chrome/124.0.0.0 Safari/537.36" etag="_hCsglXuFbWZFjn5Id9u" version="24.4.0" type="device">
  <diagram name="PÃ¡gina-1" id="FJ5EkjBxjzo5vP-3ih6C">
    <mxGraphModel dx="1290" dy="653" grid="1" gridSize="10" guides="1" tooltips="1" connect="1" arrows="1" fold="1" page="1" pageScale="1" pageWidth="827" pageHeight="1169" math="0" shadow="0">
      <root>
        <mxCell id="0" />
        <mxCell id="1" parent="0" />
        <mxCell id="stjppNEMSPBS3mSG35tz-7" value="" style="edgeStyle=orthogonalEdgeStyle;rounded=0;orthogonalLoop=1;jettySize=auto;html=1;" edge="1" parent="1" source="stjppNEMSPBS3mSG35tz-1" target="stjppNEMSPBS3mSG35tz-2">
          <mxGeometry relative="1" as="geometry" />
        </mxCell>
        <mxCell id="stjppNEMSPBS3mSG35tz-1" value="Practico 2 ejer 6" style="ellipse;whiteSpace=wrap;html=1;" vertex="1" parent="1">
          <mxGeometry x="354" y="40" width="120" height="80" as="geometry" />
        </mxCell>
        <mxCell id="stjppNEMSPBS3mSG35tz-8" value="" style="edgeStyle=orthogonalEdgeStyle;rounded=0;orthogonalLoop=1;jettySize=auto;html=1;" edge="1" parent="1" source="stjppNEMSPBS3mSG35tz-2" target="stjppNEMSPBS3mSG35tz-3">
          <mxGeometry relative="1" as="geometry" />
        </mxCell>
        <mxCell id="stjppNEMSPBS3mSG35tz-2" value="entrada n" style="rounded=0;whiteSpace=wrap;html=1;" vertex="1" parent="1">
          <mxGeometry x="354" y="160" width="120" height="60" as="geometry" />
        </mxCell>
        <mxCell id="stjppNEMSPBS3mSG35tz-9" value="" style="edgeStyle=orthogonalEdgeStyle;rounded=0;orthogonalLoop=1;jettySize=auto;html=1;" edge="1" parent="1" source="stjppNEMSPBS3mSG35tz-3" target="stjppNEMSPBS3mSG35tz-4">
          <mxGeometry relative="1" as="geometry" />
        </mxCell>
        <mxCell id="stjppNEMSPBS3mSG35tz-3" value="definir result = 0" style="rounded=0;whiteSpace=wrap;html=1;" vertex="1" parent="1">
          <mxGeometry x="354" y="250" width="120" height="60" as="geometry" />
        </mxCell>
        <mxCell id="stjppNEMSPBS3mSG35tz-10" style="edgeStyle=orthogonalEdgeStyle;rounded=0;orthogonalLoop=1;jettySize=auto;html=1;exitX=1;exitY=0.5;exitDx=0;exitDy=0;" edge="1" parent="1" source="stjppNEMSPBS3mSG35tz-4" target="stjppNEMSPBS3mSG35tz-5">
          <mxGeometry relative="1" as="geometry" />
        </mxCell>
        <mxCell id="stjppNEMSPBS3mSG35tz-12" value="V" style="edgeLabel;html=1;align=center;verticalAlign=middle;resizable=0;points=[];" vertex="1" connectable="0" parent="stjppNEMSPBS3mSG35tz-10">
          <mxGeometry x="0.2597" relative="1" as="geometry">
            <mxPoint as="offset" />
          </mxGeometry>
        </mxCell>
        <mxCell id="stjppNEMSPBS3mSG35tz-11" style="edgeStyle=orthogonalEdgeStyle;rounded=0;orthogonalLoop=1;jettySize=auto;html=1;exitX=0;exitY=0.5;exitDx=0;exitDy=0;" edge="1" parent="1" source="stjppNEMSPBS3mSG35tz-4" target="stjppNEMSPBS3mSG35tz-6">
          <mxGeometry relative="1" as="geometry" />
        </mxCell>
        <mxCell id="stjppNEMSPBS3mSG35tz-13" value="F" style="edgeLabel;html=1;align=center;verticalAlign=middle;resizable=0;points=[];" vertex="1" connectable="0" parent="stjppNEMSPBS3mSG35tz-11">
          <mxGeometry x="0.1194" y="-1" relative="1" as="geometry">
            <mxPoint as="offset" />
          </mxGeometry>
        </mxCell>
        <mxCell id="stjppNEMSPBS3mSG35tz-4" value="&#xa;&lt;div style=&quot;color: #3b3b3b;background-color: #ffffff;font-family: Consolas, &#39;Courier New&#39;, monospace;font-weight: normal;font-size: 14px;line-height: 19px;white-space: pre;&quot;&gt;&lt;div&gt;&lt;span style=&quot;color: #3b3b3b;&quot;&gt;n&lt;/span&gt;&lt;span style=&quot;color: #000000;&quot;&gt;&amp;gt;&lt;/span&gt;&lt;span style=&quot;color: #098658;&quot;&gt;0&lt;/span&gt;&lt;/div&gt;&lt;/div&gt;&#xa;&#xa;" style="rhombus;whiteSpace=wrap;html=1;" vertex="1" parent="1">
          <mxGeometry x="374" y="340" width="80" height="80" as="geometry" />
        </mxCell>
        <mxCell id="stjppNEMSPBS3mSG35tz-14" style="edgeStyle=orthogonalEdgeStyle;rounded=0;orthogonalLoop=1;jettySize=auto;html=1;exitX=1;exitY=0.5;exitDx=0;exitDy=0;entryX=0.5;entryY=0;entryDx=0;entryDy=0;" edge="1" parent="1" source="stjppNEMSPBS3mSG35tz-5" target="stjppNEMSPBS3mSG35tz-4">
          <mxGeometry relative="1" as="geometry" />
        </mxCell>
        <mxCell id="stjppNEMSPBS3mSG35tz-15" value="&lt;div style=&quot;color: rgb(59, 59, 59); font-family: Consolas, &amp;quot;Courier New&amp;quot;, monospace; font-size: 14px; line-height: 19px; white-space-collapse: preserve;&quot;&gt;n &lt;span style=&quot;color: #000000;&quot;&gt;=&lt;/span&gt;n&lt;span style=&quot;color: #000000;&quot;&gt;/&lt;/span&gt;&lt;span style=&quot;color: #098658;&quot;&gt;10&lt;/span&gt;&lt;/div&gt;" style="edgeLabel;html=1;align=center;verticalAlign=middle;resizable=0;points=[];" vertex="1" connectable="0" parent="stjppNEMSPBS3mSG35tz-14">
          <mxGeometry x="-0.4722" y="1" relative="1" as="geometry">
            <mxPoint as="offset" />
          </mxGeometry>
        </mxCell>
        <mxCell id="stjppNEMSPBS3mSG35tz-5" value="&#xa;&lt;div style=&quot;color: #3b3b3b;background-color: #ffffff;font-family: Consolas, &#39;Courier New&#39;, monospace;font-weight: normal;font-size: 14px;line-height: 19px;white-space: pre;&quot;&gt;&lt;div&gt;&lt;span style=&quot;color: #3b3b3b;&quot;&gt;result &lt;/span&gt;&lt;span style=&quot;color: #000000;&quot;&gt;=&lt;/span&gt;&lt;span style=&quot;color: #3b3b3b;&quot;&gt; result &lt;/span&gt;&lt;span style=&quot;color: #000000;&quot;&gt;+&lt;/span&gt;&lt;span style=&quot;color: #3b3b3b;&quot;&gt; n&lt;/span&gt;&lt;span style=&quot;color: #000000;&quot;&gt;%&lt;/span&gt;&lt;span style=&quot;color: #098658;&quot;&gt;10&lt;/span&gt;&lt;/div&gt;&lt;/div&gt;&#xa;&#xa;" style="rounded=0;whiteSpace=wrap;html=1;" vertex="1" parent="1">
          <mxGeometry x="460" y="440" width="176" height="60" as="geometry" />
        </mxCell>
        <mxCell id="stjppNEMSPBS3mSG35tz-17" value="" style="edgeStyle=orthogonalEdgeStyle;rounded=0;orthogonalLoop=1;jettySize=auto;html=1;" edge="1" parent="1" source="stjppNEMSPBS3mSG35tz-6" target="stjppNEMSPBS3mSG35tz-16">
          <mxGeometry relative="1" as="geometry" />
        </mxCell>
        <mxCell id="stjppNEMSPBS3mSG35tz-6" value="retornar result" style="shape=parallelogram;perimeter=parallelogramPerimeter;whiteSpace=wrap;html=1;fixedSize=1;" vertex="1" parent="1">
          <mxGeometry x="240" y="440" width="120" height="60" as="geometry" />
        </mxCell>
        <mxCell id="stjppNEMSPBS3mSG35tz-16" value="FinAlgoritmo" style="ellipse;whiteSpace=wrap;html=1;" vertex="1" parent="1">
          <mxGeometry x="240" y="530" width="120" height="80" as="geometry" />
        </mxCell>
      </root>
    </mxGraphModel>
  </diagram>
</mxfile>
